<svg xmlns="http://www.w3.org/2000/svg" xmlns:xlink="http://www.w3.org/1999/xlink" width="400" height="240" viewBox="0 0 400 240">
  <defs>
    <clipPath id="clip-s_illus_convert-file-types-to-pdf_452x320.svg">
      <rect width="400" height="240"/>
    </clipPath>
  </defs>
  <g id="s_illus_convert-file-types-to-pdf_452x320.svg" clip-path="url(#clip-s_illus_convert-file-types-to-pdf_452x320.svg)">
    <rect width="400" height="240" fill="#fff"/>
    <g id="Group_156103" data-name="Group 156103">
      <g id="Group_155517" data-name="Group 155517" transform="translate(348.16 39.054)">
        <line id="Line_6847" data-name="Line 6847" y2="8.044" transform="translate(12.96 0)" fill="none" stroke="#0d66d0" stroke-linecap="round" stroke-width="3"/>
        <line id="Line_6848" data-name="Line 6848" y2="8.044" transform="translate(12.96 17.876)" fill="none" stroke="#0d66d0" stroke-linecap="round" stroke-width="3"/>
        <line id="Line_6850" data-name="Line 6850" y2="8.044" transform="translate(25.92 12.96) rotate(90)" fill="none" stroke="#0d66d0" stroke-linecap="round" stroke-width="3"/>
        <line id="Line_6849" data-name="Line 6849" y2="8.044" transform="translate(8.044 12.96) rotate(90)" fill="none" stroke="#0d66d0" stroke-linecap="round" stroke-width="3"/>
      </g>
      <g id="Group_155518" data-name="Group 155518" transform="translate(252.521 188.941) rotate(-1)">
        <line id="Line_6847-2" data-name="Line 6847" y2="2.939" transform="translate(6.008 0)" fill="none" stroke="#50bf61" stroke-linecap="round" stroke-width="3"/>
        <line id="Line_6848-2" data-name="Line 6848" y2="2.939" transform="translate(6.008 9.076)" fill="none" stroke="#50bf61" stroke-linecap="round" stroke-width="3"/>
        <line id="Line_6850-2" data-name="Line 6850" y2="2.939" transform="translate(12.015 6.008) rotate(90)" fill="none" stroke="#50bf61" stroke-linecap="round" stroke-width="3"/>
        <line id="Line_6849-2" data-name="Line 6849" y2="2.939" transform="translate(2.939 6.008) rotate(90)" fill="none" stroke="#50bf61" stroke-linecap="round" stroke-width="3"/>
      </g>
      <path id="Path_101390" data-name="Path 101390" d="M10.67,0A10.669,10.669,0,0,0,0,10.668v91.893a10.671,10.671,0,0,0,10.67,10.67H81.8a10.671,10.671,0,0,0,10.67-10.67V27.03a8.957,8.957,0,0,0-2.633-6.3L71.631,2.595A8.786,8.786,0,0,0,65.371,0Z" transform="translate(276.464 65.924) rotate(-1)" fill="#fee" style="isolation: isolate"/>
      <path id="Path_4" data-name="Path 4" d="M183,297.256V209.222a10.361,10.361,0,0,1,10.347-10.372h50.87a11.37,11.37,0,0,1,8.017,3.312l15.229,15.152a11.425,11.425,0,0,1,3.363,8.1v71.843a10.361,10.361,0,0,1-10.347,10.372H193.347A10.361,10.361,0,0,1,183,297.256Z" transform="translate(86.93 -122.543)" fill="#fff" stroke="#cacaca" stroke-linecap="round" stroke-linejoin="round" stroke-width="4"/>
      <path id="Path_5" data-name="Path 5" d="M204.329,246.553c-3.468,5.482-6.882,8.944-8.878,8.944a1.332,1.332,0,0,1-1.346-1.565c.378-1.963,4.331-4.794,10.224-7.379ZM221,238.717c-1.491.306-3.03.662-4.591,1.066-1.12.292-2.259.61-3.4.95.606-1.213,1.161-2.416,1.644-3.559.638-1.511,1.237-3.022,1.788-4.5.483.744.984,1.469,1.495,2.165a43.425,43.425,0,0,0,3.183,3.85Zm-7.7-26.082a1.434,1.434,0,0,1,1.2-.76c1.314,0,1.6,1.553,1.6,2.855a35.007,35.007,0,0,1-1.72,9.025c-2.2-5.729-1.9-9.743-1.078-11.119Zm24.682,29.938c-.191.976-1.219,1.605-2.627,1.605a5.1,5.1,0,0,1-1.187-.145,19.48,19.48,0,0,1-7.526-3.738,37.99,37.99,0,0,1,5.568-.42,20.472,20.472,0,0,1,3.712.28c1.115.227,2.374.831,2.06,2.418Zm3.738-2.585c-1.644-1.73-4.788-2.611-9.344-2.611a50.258,50.258,0,0,0-7.548.644,37.065,37.065,0,0,1-4.347-4.979,45.488,45.488,0,0,1-2.72-4.148c1.6-4.957,2.418-8.982,2.418-11.964,0-3.663-1.479-7.58-5.629-7.58a4.189,4.189,0,0,0-3.474,2.014c-1.77,2.981-1.062,9.121,1.764,15.367-.984,2.869-2.056,5.663-3.37,8.759a77.443,77.443,0,0,1-3.81,7.761c-4.233,1.674-13.231,5.729-14.088,10.211a3.757,3.757,0,0,0,1.231,3.571,5.419,5.419,0,0,0,3.667,1.283c5.42,0,10.823-7.363,14.462-13.7,2.066-.69,4.176-1.316,6.277-1.861,2.3-.6,4.53-1.09,6.631-1.457,5.737,4.913,10.839,5.657,13.4,5.657,3.512,0,4.826-1.493,5.3-2.75a4.156,4.156,0,0,0-.821-4.219Z" transform="translate(97.108 -105.594)" fill="#fa0f00" fill-rule="evenodd"/>
      <g id="Group_156086" data-name="Group 156086" transform="translate(213.811 134.572) rotate(-90)">
        <line id="Line_6851" data-name="Line 6851" y2="29.507" transform="translate(7.749 0)" fill="none" stroke="#cacaca" stroke-linecap="round" stroke-width="4"/>
        <line id="Line_6854" data-name="Line 6854" x2="7.236" y2="6.432" transform="translate(0 23.166)" fill="none" stroke="#cacaca" stroke-linecap="round" stroke-width="4"/>
        <line id="Line_6855" data-name="Line 6855" x1="7.527" y2="6.341" transform="translate(7.749 23.166)" fill="none" stroke="#cacaca" stroke-linecap="round" stroke-width="4"/>
      </g>
      <g id="Group_156096" data-name="Group 156096" transform="translate(11.596 104.367)">
        <path id="Path_101371" data-name="Path 101371" d="M0,79.736V8.4A8.4,8.4,0,0,1,8.384,0H49.6a9.213,9.213,0,0,1,6.5,2.684l12.34,12.277a9.257,9.257,0,0,1,2.725,6.562V79.736a8.4,8.4,0,0,1-8.384,8.4H8.384A8.4,8.4,0,0,1,0,79.736Z" transform="translate(0 0)" fill="#fff" stroke="#cacaca" stroke-linecap="round" stroke-linejoin="round" stroke-width="3"/>
        <g id="Group_156094" data-name="Group 156094" transform="translate(14.737 20.204)">
          <rect id="Rectangle_148676" data-name="Rectangle 148676" width="40" height="31" transform="translate(0.666 0.429)" fill="#ffebf3"/>
          <g id="Group_155647" data-name="Group 155647" transform="translate(0 0)">
            <rect id="Rectangle_148640" data-name="Rectangle 148640" width="41.133" height="31.506" rx="2" transform="translate(0 0)" stroke-width="3" stroke="#d11183" stroke-linecap="round" stroke-linejoin="round" fill="none"/>
            <path id="Path_101153" data-name="Path 101153" d="M2.385,4.78A2.39,2.39,0,1,0,0,2.386,2.393,2.393,0,0,0,2.385,4.78Z" transform="translate(30.049 6.525)" fill="#fcb0cf" stroke="#fcb0cf" stroke-linecap="round" stroke-linejoin="round" stroke-width="3"/>
            <path id="Union_1" data-name="Union 1" d="M24.875,13.151H20.113l.017-.025L0,13.019,13.225.33a1.172,1.172,0,0,1,1.634,0L23.2,8.527l.358-.536,3.951-4.064a1.555,1.555,0,0,1,2.122,0l9.125,9.22H27.908l.016.016Z" transform="translate(1.412 16.815)" fill="#fcb0cf"/>
            <rect id="Rectangle_148641" data-name="Rectangle 148641" width="41.133" height="31.506" rx="2" transform="translate(0 0)" stroke-width="2" stroke="#d11183" stroke-linecap="round" stroke-linejoin="round" fill="none"/>
          </g>
        </g>
      </g>
      <g id="Group_156097" data-name="Group 156097" transform="translate(47.796 83.288) rotate(3)">
        <path id="Path_101373" data-name="Path 101373" d="M0,79.5V8.379A8.37,8.37,0,0,1,8.359,0h41.1a9.186,9.186,0,0,1,6.477,2.676l12.3,12.241a9.23,9.23,0,0,1,2.716,6.543V79.5a8.37,8.37,0,0,1-8.359,8.379H8.359A8.37,8.37,0,0,1,0,79.5Z" transform="translate(0 3.713) rotate(-3)" fill="#fff" stroke="#cacaca" stroke-linecap="round" stroke-linejoin="round" stroke-width="3"/>
        <rect id="Rectangle_148643" data-name="Rectangle 148643" width="33.242" height="25.264" rx="2" transform="matrix(0.999, -0.052, 0.052, 0.999, 22.351, 24.839)" fill="#fba868" opacity="0.15"/>
        <rect id="Rectangle_148642" data-name="Rectangle 148642" width="34.572" height="25.264" rx="2" transform="matrix(0.999, -0.052, 0.052, 0.999, 21.023, 24.909)" stroke-width="2" stroke="#fba868" stroke-linecap="round" stroke-linejoin="round" fill="none"/>
        <rect id="Rectangle_148665" data-name="Rectangle 148665" width="31.913" height="23.934" rx="2" transform="matrix(0.999, -0.052, 0.052, 0.999, 18.716, 31.688)" fill="#fff"/>
        <rect id="Rectangle_148643-2" data-name="Rectangle 148643" width="31.913" height="23.934" rx="2" transform="matrix(0.999, -0.052, 0.052, 0.999, 18.716, 31.688)" fill="#fba868" opacity="0.15"/>
        <rect id="Rectangle_148642-2" data-name="Rectangle 148642" width="33.242" height="23.934" rx="2" transform="matrix(0.999, -0.052, 0.052, 0.999, 17.388, 31.757)" stroke-width="2" stroke="#fba868" stroke-linecap="round" stroke-linejoin="round" fill="none"/>
        <path id="Path_101125" data-name="Path 101125" d="M7.785,4.337.811,7.758A.6.6,0,0,1,0,7.3V.483C0,.128.487-.1.811.044l6.974,3.4a.49.49,0,0,1,0,.9Z" transform="translate(31.96 39.059) rotate(-3)" fill="#fba868"/>
      </g>
      <g id="Group_156100" data-name="Group 156100" transform="translate(84.218 69.422)">
        <path id="Path_101375" data-name="Path 101375" d="M0,80.052V8.437A8.428,8.428,0,0,1,8.417,0H49.8A9.249,9.249,0,0,1,56.32,2.694L68.709,15.02a9.294,9.294,0,0,1,2.735,6.588V80.051a8.428,8.428,0,0,1-8.417,8.437H8.417A8.428,8.428,0,0,1,0,80.052Z" transform="translate(0 0)" fill="#fff" stroke="#cacaca" stroke-linecap="round" stroke-linejoin="round" stroke-width="3"/>
        <g id="Group_155657" data-name="Group 155657" transform="translate(15.783 23.408) rotate(1)">
          <path id="Path_101549" data-name="Path 101549" d="M2.678,0H38.446a2.678,2.678,0,0,1,2.678,2.678V4.343a2.678,2.678,0,0,1-2.678,2.678H2.678A2.678,2.678,0,0,1,0,4.343V2.678A2.678,2.678,0,0,1,2.678,0Z" transform="translate(0 0.631)" fill="#e1f5d0"/>
          <g id="Path_101548" data-name="Path 101548" transform="translate(0.669 0.631)" fill="none" stroke-linecap="round">
            <path d="M2.678,0h34.43a2.678,2.678,0,0,1,2.678,2.678v22.06a2.678,2.678,0,0,1-2.678,2.678H2.678A2.678,2.678,0,0,1,0,24.738V2.678A2.678,2.678,0,0,1,2.678,0Z" stroke="none"/>
            <path d="M 37.10817718505859 -3.814697265625e-06 L 2.677825927734375 5.7220458984375e-06 C 1.198905944824219 5.7220458984375e-06 7.62939453125e-06 1.198905944824219 7.62939453125e-06 2.677825927734375 L -3.814697265625e-06 24.73771476745605 C -3.814697265625e-06 26.21663475036621 1.198905944824219 27.41552543640137 2.677814483642578 27.41552543640137 L 37.1081657409668 27.41552543640137 C 38.58708572387695 27.41552543640137 39.78598403930664 26.21662521362305 39.78598403930664 24.73770523071289 L 39.78599548339844 2.677816390991211 C 39.78599548339844 1.198896408081055 38.58708572387695 -3.814697265625e-06 37.10817718505859 -3.814697265625e-06 M 37.10817718505859 -2.000003814697266 C 39.68753433227539 -2.000003814697266 41.78599548339844 0.09845542907714844 41.78599548339844 2.677816390991211 L 41.78598403930664 24.73770523071289 C 41.78598403930664 27.31706619262695 39.68752670288086 29.41552543640137 37.1081657409668 29.41552543640137 L 2.677814483642578 29.41552543640137 C 0.09845733642578125 29.41552543640137 -2.000003814697266 27.31706619262695 -2.000003814697266 24.73771476745605 L -1.999992370605469 2.677825927734375 C -1.999992370605469 0.0984649658203125 0.0984649658203125 -1.999994277954102 2.677825927734375 -1.999994277954102 L 37.10817718505859 -2.000003814697266 Z" stroke="none" fill="#44b756"/>
          </g>
          <line id="Line_6839" data-name="Line 6839" x2="40.789" transform="translate(0.167 7.485)" fill="none" stroke="#3eb851" stroke-width="2"/>
          <line id="Line_6846" data-name="Line 6846" x2="40.789" transform="translate(0.167 12.834)" fill="none" stroke="#3eb851" stroke-width="2"/>
          <path id="Path_101226" data-name="Path 101226" d="M0,0V29.217" transform="translate(7.188 0)" fill="none" stroke="#3eb851" stroke-width="2"/>
          <path id="Path_101227" data-name="Path 101227" d="M0,0V29.217" transform="translate(27.248 0)" fill="none" stroke="#3eb851" stroke-width="2"/>
          <line id="Line_6840" data-name="Line 6840" x2="40.789" transform="translate(0.167 18.183)" fill="none" stroke="#3eb851" stroke-width="2"/>
          <line id="Line_6841" data-name="Line 6841" x2="40.789" transform="translate(0.167 23.533)" fill="none" stroke="#3eb851" stroke-width="2"/>
        </g>
      </g>
      <g id="Group_156101" data-name="Group 156101" transform="translate(122.474 53.026)">
        <g id="Group_156102" data-name="Group 156102">
          <path id="Path_101552" data-name="Path 101552" d="M0,80.052V8.437A8.428,8.428,0,0,1,8.417,0H49.8A9.249,9.249,0,0,1,56.32,2.694L68.709,15.02a9.294,9.294,0,0,1,2.735,6.588V80.051a8.428,8.428,0,0,1-8.417,8.437H8.417A8.428,8.428,0,0,1,0,80.052Z" transform="translate(0 0)" fill="#fff" stroke="#cacaca" stroke-linecap="round" stroke-linejoin="round" stroke-width="3"/>
          <g id="Group_156099" data-name="Group 156099" transform="translate(11.196 18.657) rotate(-14)">
            <path id="Path_101551" data-name="Path 101551" d="M.756,0A.755.755,0,0,0,0,.708V6.254a.69.69,0,0,0,.212.494.633.633,0,0,0,.52.188h.85A.692.692,0,0,0,2.1,6.748a.819.819,0,0,0,.188-.518V2.194H8.212V16.519H5.522a.846.846,0,0,0-.779.8v.8a.8.8,0,0,0,.8.708h7.81a.756.756,0,0,0,.756-.756v-.92a.712.712,0,0,0-.257-.48.7.7,0,0,0-.523-.155H10.524V2.361h5.993V6.348a.681.681,0,0,0,.167.518.654.654,0,0,0,.494.188h.991a.608.608,0,0,0,.473-.188.685.685,0,0,0,.188-.494V.708A.731.731,0,0,0,18.121,0Z" transform="translate(4.874 0) rotate(15)" fill="#0d66d0" fill-rule="evenodd"/>
            <rect id="Rectangle_148673" data-name="Rectangle 148673" width="18.83" height="2.354" rx="0.47" transform="translate(20.016 16.241) rotate(15)" fill="#0d66d0"/>
            <rect id="Rectangle_148674" data-name="Rectangle 148674" width="18.83" height="2.354" rx="0.47" transform="translate(18.797 20.788) rotate(15)" fill="#0d66d0"/>
            <rect id="Rectangle_148675" data-name="Rectangle 148675" width="32.952" height="2.354" rx="0.47" transform="translate(3.174 23.838) rotate(15)" fill="#0d66d0"/>
          </g>
        </g>
      </g>
      <g id="Group_155519" data-name="Group 155519" transform="translate(374.465 64.374)">
        <line id="Line_6847-3" data-name="Line 6847" y2="3.256" transform="translate(6.654 0)" fill="none" stroke="#fba868" stroke-linecap="round" stroke-width="3"/>
        <line id="Line_6848-3" data-name="Line 6848" y2="3.256" transform="translate(6.654 10.053)" fill="none" stroke="#fba868" stroke-linecap="round" stroke-width="3"/>
        <line id="Line_6850-3" data-name="Line 6850" y2="3.256" transform="translate(13.308 6.654) rotate(90)" fill="none" stroke="#fba868" stroke-linecap="round" stroke-width="3"/>
        <line id="Line_6849-3" data-name="Line 6849" y2="3.256" transform="translate(3.256 6.654) rotate(90)" fill="none" stroke="#fba868" stroke-linecap="round" stroke-width="3"/>
      </g>
    </g>
  </g>
</svg>