<svg xmlns="http://www.w3.org/2000/svg" viewBox="0 0 120 120" width="1024" height="1024">
	<defs>
		<linearGradient id="grd1" gradientUnits="userSpaceOnUse"  x1="59.962" y1="116.925" x2="59.962" y2="3">
			<stop offset="0" stop-color="#d9a457"  />
			<stop offset="1" stop-color="#833ab4"  />
		</linearGradient>
	</defs>
	<style>
		tspan { white-space:pre }
		.shp0 { fill: url(#grd1) } 
		.shp1 { fill: #fffff0 } 
	</style>
	<g id="Layer">
		<g id="SvgjsG1008">
			<g id="SvgjsG1009">
				<path id="Layer" class="shp0" d="M89.58 3L3 3L3 89.58C3 104.68 15.24 116.92 30.34 116.92L116.92 116.92L116.92 30.34C116.92 15.24 104.68 3 89.58 3Z" />
			</g>
			<g id="SvgjsG1010">
				<path id="Layer" class="shp1" d="M27.44 69.58L32.84 69.58C33.12 69.58 33.32 69.39 33.32 69.1L33.32 39.34C33.32 36.06 36.01 33.36 39.29 33.36L69.05 33.36C69.34 33.36 69.53 33.17 69.53 32.88L69.53 27.49C69.53 23.64 66.45 20.55 62.6 20.55L27.44 20.55C23.59 20.55 20.51 23.64 20.51 27.49L20.51 62.74C20.51 66.5 23.59 69.58 27.44 69.58ZM44.3 81.04L44.3 86.44C44.3 90.29 47.38 93.37 51.23 93.37L86.48 93.37C90.34 93.37 93.42 90.29 93.42 86.44L93.42 51.18C93.42 47.33 90.34 44.25 86.48 44.25L80.99 44.25C80.7 44.25 80.51 44.44 80.51 44.73L80.51 74.49C80.51 77.77 77.82 80.46 74.54 80.46L44.78 80.46C44.49 80.56 44.3 80.75 44.3 81.04L44.3 81.04Z" />
				<path id="Layer" class="shp1" d="M44.78 69.58L62.69 69.58C66.55 69.58 69.63 66.5 69.63 62.65L69.63 44.83C69.63 44.54 69.44 44.34 69.15 44.34L51.14 44.34C47.28 44.34 44.2 47.43 44.2 51.28L44.2 69.19C44.3 69.39 44.49 69.58 44.78 69.58Z" />
			</g>
		</g>
	</g>
</svg>