<svg xmlns="http://www.w3.org/2000/svg" version="1.1" xmlns:xlink="http://www.w3.org/1999/xlink" xmlns:svgjs="http://svgjs.com/svgjs" width="64" height="64" viewBox="0 0 120 120" overflow="visible">
  <g class="signage-logo" opacity="1">
    <defs id="SvgjsDefs1002">
      <linearGradient gradientTransform="rotate(90)" id="grad3" x1="0%" y1="0%" x2="100%" y2="0%">
        <stop offset="0%" style="stop-color:rgba(131,58,180,1);stop-opacity:1" />
        <!-- <stop offset="50%" style="stop-color:rgba(253,29,148,1);stop-opacity:1" /> -->
        <stop offset="90%" style="stop-color:rgba(217,164,87,1);stop-opacity:1" />
        <!-- <stop offset="100%" style="stop-color:rgba(205,69,252,1);stop-opacity:1" /> -->
      </linearGradient>  
    </defs>
    <g id="SvgjsG1008" transform="scale(1.2311688311688311)" opacity="1">
      <g id="SvgjsG1009" class="KCNnLfQov" transform="translate(92.53385558551041, 0) scale(-0.925338555855104 0.925338555855104)" light-content="false" non-strokable="false" fill="url(#grad3)">
        <!-- 0d0d0d -->
        <path d="M24 0h76v76c0 13.255-10.745 24-24 24H0V24C0 10.745 10.745 0 24 0z"></path>
      </g>
      <g id="SvgjsG1010" class="A1vMdPN7iE" transform="translate(7.111783535431854, 7.150898968139316) scale(0.782320591413899)" light-content="true" non-strokable="false" fill="#ffffff">
        <path d="M19.4 63.1H25c.3 0 .5-.2.5-.5V31.7c0-3.4 2.8-6.2 6.2-6.2h30.9c.3 0 .5-.2.5-.5v-5.6c0-4-3.2-7.2-7.2-7.2H19.4c-4 0-7.2 3.2-7.2 7.2V56c0 3.9 3.2 7.1 7.2 7.1zM36.9 75v5.6c0 4 3.2 7.2 7.2 7.2h36.6c4 0 7.2-3.2 7.2-7.2V44c0-4-3.2-7.2-7.2-7.2H75c-.3 0-.5.2-.5.5v30.9c0 3.4-2.8 6.2-6.2 6.2H37.4c-.3.1-.5.3-.5.6z"></path>
        <path d="M37.4 63.1H56c4 0 7.2-3.2 7.2-7.2V37.4c0-.3-.2-.5-.5-.5H44c-4 0-7.2 3.2-7.2 7.2v18.6c.1.2.3.4.6.4z"></path>
      </g>
    </g>
  </g>
</svg>