<svg id="Layer_1" enable-background="new 0 0 512 512" height="512" viewBox="0 0 512 512" width="512" xmlns="http://www.w3.org/2000/svg"><g><path d="m365.395 413.467h-218.79c62.011 45.282 156.787 45.276 218.79 0z"/><path d="m146.605 98.533h218.79c-62.011-45.282-156.787-45.276-218.79 0z"/><path d="m256 34.267c60.881 0 116.025 24.543 156.095 64.267h45.751c-99.17-130.642-304.574-130.588-403.693 0h45.751c40.071-39.724 95.215-64.267 156.096-64.267z"/><path d="m256 477.733c-60.881 0-116.025-24.543-156.095-64.267h-45.752c99.17 130.642 304.574 130.588 403.693 0h-45.751c-40.07 39.724-95.214 64.267-156.095 64.267z"/><path d="m265.674 289.2h25.819l11.067-66.4h-25.82z"/><path d="m153.207 289.2h25.819l11.067-66.4h-25.819z"/><path d="m497 128.533h-482c-8.284 0-15 6.716-15 15v224.934c0 8.284 6.716 15 15 15h482c8.284 0 15-6.716 15-15v-224.934c0-8.284-6.716-15-15-15zm-386.871 81.733-16.067 96.4c-.697 4.18-5.615 14.278-17.262 12.33-8.172-1.362-13.692-9.091-12.33-17.262l10.478-62.868h-3.715c-19.902-.793-19.887-29.215 0-30h8.716l.589-3.532c1.362-8.172 9.089-13.696 17.262-12.33 8.171 1.362 13.691 9.091 12.329 17.262zm112.467 0-16.066 96.4c-1.206 7.233-7.463 12.534-14.796 12.534h-56.234c-9.256 0-16.32-8.322-14.796-17.466l16.067-96.4c1.206-7.233 7.463-12.534 14.796-12.534h56.233c9.256 0 16.32 8.322 14.796 17.466zm112.466 0-16.066 96.4c-1.205 7.233-7.463 12.534-14.796 12.534h-56.233c-9.256 0-16.32-8.322-14.796-17.466l16.066-96.4c1.206-7.233 7.463-12.534 14.796-12.534h56.233c9.258 0 16.32 8.322 14.796 17.466zm23.967 11.137 2.675-16.066c1.36-8.173 9.105-13.699 17.259-12.333 8.172 1.36 13.694 9.088 12.333 17.259l-2.675 16.066c-.697 4.19-5.632 14.282-17.259 12.333-8.172-1.36-13.694-9.088-12.333-17.259zm9.151 95.278c-6.894-4.595-8.756-13.908-4.16-20.801l64.267-96.4c4.595-6.894 13.908-8.755 20.801-4.16 6.894 4.595 8.756 13.908 4.16 20.801l-64.267 96.4c-3.097 4.646-11.91 10.087-20.801 4.16zm90.057-26.084-2.675 16.066c-.697 4.19-5.632 14.282-17.259 12.333-8.172-1.36-13.694-9.088-12.333-17.259l2.675-16.066c1.36-8.173 9.106-13.699 17.259-12.333 8.172 1.36 13.695 9.088 12.333 17.259z"/></g></svg>